Coordinates
nRows=191
nColumns=2
inDegrees=yes
endheader
time	ankle_angle_r	
2.56234	 18.905595	
2.62483	 18.908899	
2.68733	 18.914231	
2.74982	 18.853772	
2.81232	 18.793099	
2.87482	 18.816866	
2.93731	 18.828259	
2.99981	 18.814098	
3.0623	 18.869821	
3.1248	 18.929912	
3.1873	 18.906828	
3.24979	 18.842243	
3.31229	 18.797073	
3.37478	 18.823292	
3.43728	 18.863611	
3.49978	 18.834725	
3.56227	 18.848668	
3.62477	 18.901755	
3.68726	 18.878550	
3.74976	 18.855379	
3.81226	 18.849887	
3.87475	 18.834340	
3.93725	 18.828491	
3.99974	 18.797109	
4.06224	 18.810340	
4.12474	 18.892684	
4.18723	 18.937514	
4.24973	 18.930479	
4.31222	 18.867016	
4.37472	 18.787580	
4.43722	 18.769196	
4.49971	 18.758936	
4.56221	 18.777821	
4.6247	 18.853861	
4.6872	 18.875899	
4.7497	 18.854996	
4.81219	 18.823824	
4.87469	 18.770365	
4.93718	 18.764973	
4.99968	 18.784419	
5.06218	 18.798823	
5.12467	 18.838769	
5.18717	 18.853592	
5.24966	 18.847214	
5.31216	 18.832354	
5.37466	 18.779886	
5.43715	 18.756910	
5.49965	 18.772002	
5.56214	 18.782791	
5.62464	 18.815419	
5.68714	 18.837072	
5.74963	 18.832206	
5.81213	 18.833652	
5.87462	 18.806705	
5.93712	 18.772268	
5.99962	 18.772461	
6.06211	 18.769179	
6.12461	 18.793911	
6.1871	 18.845092	
6.2496	 18.848500	
6.3121	 18.851234	
6.37459	 18.852919	
6.43709	 18.809902	
6.49958	 18.776729	
6.56208	 18.772667	
6.62458	 18.815841	
6.68707	 18.869245	
6.74957	 18.867849	
6.81206	 18.872496	
6.87456	 18.860797	
6.93706	 18.801758	
6.99955	 18.789584	
7.06205	 18.821239	
7.12454	 18.864604	
7.18704	 18.892154	
7.24954	 18.867722	
7.31203	 18.861939	
7.37453	 18.856148	
7.43702	 18.804052	
7.49952	 18.788783	
7.56202	 18.794422	
7.62451	 18.799599	
7.68701	 18.844810	
7.7495	 18.858621	
7.812	 18.836357	
7.8745	 18.826985	
7.93699	 18.788998	
7.99949	 18.763303	
8.06198	 18.776340	
8.12448	 18.777500	
8.18698	 18.802784	
8.24947	 18.833691	
8.31197	 18.825050	
8.37446	 18.823014	
8.43696	 18.810649	
8.49946	 18.784438	
8.56195	 18.777307	
8.62445	 18.759662	
8.68694	 18.779251	
8.74944	 18.839892	
8.81194	 18.856403	
8.87443	 18.859098	
8.93693	 18.838491	
8.99942	 18.785345	
9.06192	 18.772746	
9.12442	 18.770470	
9.18691	 18.785659	
9.24941	 18.832822	
9.3119	 18.850709	
9.3744	 18.863363	
9.4369	 18.835573	
9.49939	 18.764375	
9.56189	 18.776940	
9.62438	 18.825002	
9.68688	 18.839183	
9.74938	 18.868658	
9.81187	 18.894744	
9.87437	 18.893093	
9.93686	 18.851658	
9.99936	 18.796740	
10.0619	 18.801368	
10.1244	 18.823687	
10.1868	 18.822624	
10.2493	 18.848612	
10.3118	 18.874037	
10.3743	 18.885192	
10.4368	 18.927141	
10.4993	 18.908762	
10.5618	 18.816329	
10.6243	 18.795807	
10.6868	 18.827091	
10.7493	 18.839268	
10.8118	 18.855342	
10.8743	 18.892625	
10.9368	 18.925441	
10.9993	 18.877080	
11.0618	 18.808198	
11.1243	 18.813874	
11.1868	 18.824870	
11.2493	 18.853805	
11.3118	 18.916960	
11.3743	 18.934069	
11.4368	 18.930100	
11.4993	 18.894918	
11.5618	 18.827502	
11.6243	 18.817703	
11.6868	 18.811927	
11.7492	 18.808730	
11.8117	 18.881896	
11.8742	 18.921761	
11.9367	 18.886811	
11.9992	 18.841387	
12.0617	 18.801923	
12.1242	 18.813466	
12.1867	 18.844884	
12.2492	 18.855260	
12.3117	 18.876692	
12.3742	 18.878052	
12.4367	 18.864822	
12.4992	 18.862551	
12.5617	 18.833873	
12.6242	 18.805378	
12.6867	 18.805656	
12.7492	 18.813003	
12.8117	 18.845595	
12.8742	 18.882181	
12.9367	 18.899822	
12.9992	 18.933222	
13.0617	 18.913240	
13.1242	 18.835182	
13.1867	 18.802232	
13.2492	 18.780558	
13.3116	 18.793821	
13.3741	 18.876375	
13.4366	 18.908906	
13.4991	 18.885490	
13.5616	 18.849911	
13.6241	 18.801487	
13.6866	 18.805313	
13.7491	 18.860552	
13.8116	 18.918593	
13.8741	 18.941116	
13.9366	 18.890299	
13.9991	 18.846027	
14.0616	 18.858343	
14.1241	 18.860751	
14.1866	 18.834959	
14.2491	 18.811709	
14.3116	 18.831682	
14.3741	 18.882530	
14.4366	 18.905629	
